HIERARCHY
ROOT Hips
{
	OFFSET 0.00000 0.00000 0.00000
	CHANNELS 6 Xposition Yposition Zposition Zrotation Yrotation Xrotation 
	JOINT LHipJoint
	{
		OFFSET 0 0 0
		CHANNELS 3 Zrotation Yrotation Xrotation
		JOINT LeftUpLeg
		{
			OFFSET 1.88772 -1.62769 0.85636
			CHANNELS 3 Zrotation Yrotation Xrotation
			JOINT LeftLeg
			{
				OFFSET 2.39836 -6.58946 0.00000
				CHANNELS 3 Zrotation Yrotation Xrotation
				JOINT LeftFoot
				{
					OFFSET 2.78523 -7.65237 0.00000
					CHANNELS 3 Zrotation Yrotation Xrotation
					JOINT LeftToeBase
					{
						OFFSET 0.19551 -0.53715 1.90694
						CHANNELS 3 Zrotation Yrotation Xrotation
						End Site
						{
							OFFSET 0.00000 -0.00000 0.99735
						}
					}
				}
			}
		}
	}
	JOINT RHipJoint
	{
		OFFSET 0 0 0
		CHANNELS 3 Zrotation Yrotation Xrotation
		JOINT RightUpLeg
		{
			OFFSET -1.74282 -1.62769 0.85636
			CHANNELS 3 Zrotation Yrotation Xrotation
			JOINT RightLeg
			{
				OFFSET -2.36062 -6.48575 0.00000
				CHANNELS 3 Zrotation Yrotation Xrotation
				JOINT RightFoot
				{
					OFFSET -2.76258 -7.59014 0.00000
					CHANNELS 3 Zrotation Yrotation Xrotation
					JOINT RightToeBase
					{
						OFFSET -0.19308 -0.53048 2.03952
						CHANNELS 3 Zrotation Yrotation Xrotation
						End Site
						{
							OFFSET -0.00000 -0.00000 1.06031
						}
					}
				}
			}
		}
	}
	JOINT LowerBack
	{
		OFFSET 0 0 0
		CHANNELS 3 Zrotation Yrotation Xrotation
		JOINT Spine
		{
			OFFSET -0.08299 2.03160 -0.30721
			CHANNELS 3 Zrotation Yrotation Xrotation
			JOINT Spine1
			{
				OFFSET -0.01030 2.00603 0.13891
				CHANNELS 3 Zrotation Yrotation Xrotation
				JOINT Neck
				{
					OFFSET 0 0 0
					CHANNELS 3 Zrotation Yrotation Xrotation
					JOINT Neck1
					{
						OFFSET 0.04282 1.69578 0.19991
						CHANNELS 3 Zrotation Yrotation Xrotation
						JOINT Head
						{
							OFFSET -0.08665 1.66622 -0.03785
							CHANNELS 3 Zrotation Yrotation Xrotation
							End Site
							{
								OFFSET -0.03699 1.83329 -0.04094
							}
						}
					}
				}
				JOINT LeftShoulder
				{
					OFFSET 0 0 0
					CHANNELS 3 Zrotation Yrotation Xrotation
					JOINT LeftArm
					{
						OFFSET 3.04219 1.50803 -0.05347
						CHANNELS 3 Zrotation Yrotation Xrotation
						JOINT LeftForeArm
						{
							OFFSET 5.79199 -0.00000 0.00000
							CHANNELS 3 Zrotation Yrotation Xrotation
							JOINT LeftHand
							{
								OFFSET 3.49908 -0.00000 0.00000
								CHANNELS 3 Zrotation Yrotation Xrotation
								JOINT LeftFingerBase
								{
									OFFSET 0 0 0
									CHANNELS 3 Zrotation Yrotation Xrotation
									JOINT LeftHandIndex1
									{
										OFFSET 0.59386 -0.00000 0.00000
										CHANNELS 3 Zrotation Yrotation Xrotation
										End Site
										{
											OFFSET 0.47879 -0.00000 0.00000
										}
									}
								}
								JOINT LThumb
								{
									OFFSET 0 0 0
									CHANNELS 3 Zrotation Yrotation Xrotation
									End Site
									{
										OFFSET 0.48610 -0.00000 0.48610
									}
								}
							}
						}
					}
				}
				JOINT RightShoulder
				{
					OFFSET 0 0 0
					CHANNELS 3 Zrotation Yrotation Xrotation
					JOINT RightArm
					{
						OFFSET -3.30316 1.18853 0.11175
						CHANNELS 3 Zrotation Yrotation Xrotation
						JOINT RightForeArm
						{
							OFFSET -5.73799 -0.00000 0.00000
							CHANNELS 3 Zrotation Yrotation Xrotation
							JOINT RightHand
							{
								OFFSET -3.57916 -0.00000 -0.00000
								CHANNELS 3 Zrotation Yrotation Xrotation
								JOINT RightFingerBase
								{
									OFFSET 0 0 0
									CHANNELS 3 Zrotation Yrotation Xrotation
									JOINT RightHandIndex1
									{
										OFFSET -0.61558 -0.00000 0.00000
										CHANNELS 3 Zrotation Yrotation Xrotation
										End Site
										{
											OFFSET -0.49629 -0.00000 0.00000
										}
									}
								}
								JOINT RThumb
								{
									OFFSET 0 0 0
									CHANNELS 3 Zrotation Yrotation Xrotation
									End Site
									{
										OFFSET -0.50387 -0.00000 0.50387
									}
								}
							}
						}
					}
				}
			}
		}
	}
}
MOTION
Frames: 14
Frame Time: .0083333
15.1945 17.5481 -15.2961 7.2606 -57.5772 0.7317 0.0000 0.0000 0.0000 -15.5530 -9.6234 -14.4006 1.3858 7.4485 21.0512 0.4137 6.2763 -16.0596 0.2831 -3.4218 -9.4553 0.0000 0.0000 0.0000 13.0879 13.7707 -3.7894 -0.9251 -6.1276 17.1550 0.5937 -21.2451 -25.3128 -0.3115 3.5879 -9.9202 -6.9460 0.6340 1.4263 -1.1744 0.5386 -3.0189 2.6475 0.4485 -3.9920 3.6704 2.7438 -7.0945 -6.2897 3.6915 4.4018 -2.5457 1.6809 2.8981 0.0000 0.0000 0.0000 -81.8565 3.5157 27.9155 20.0360 -30.6856 -5.5497 -0.0000 0.0000 -17.3083 14.0829 -22.3231 -5.4431 -7.1250 0.0000 -0.0000 -9.2877 7.2834 8.1458 0.0000 0.0000 0.0000 81.9946 -7.2953 52.5529 -21.3621 32.2485 -6.2420 0.0000 -0.0000 -8.6330 -19.0412 -26.1607 8.6521 7.1250 -0.0000 -0.0000 12.0030 -57.0332 -3.5740
15.1982 17.5555 -15.3026 7.0261 -57.4678 0.9894 0.0000 0.0000 0.0000 -15.3818 -9.7275 -14.3792 1.3681 7.4026 20.9137 0.4042 6.4145 -16.0588 0.2623 -3.2947 -9.1004 0.0000 0.0000 0.0000 13.2308 13.8183 -3.9309 -0.9452 -6.1920 17.3426 0.6511 -21.3629 -24.9941 -0.3482 3.7913 -10.4902 -6.8208 0.6501 1.4483 -1.1770 0.5600 -3.0663 2.5732 0.4581 -4.0539 3.6982 2.6763 -6.8773 -6.2613 3.5923 4.1953 -2.5456 1.6388 2.7812 -0.0000 -0.0000 0.0000 -81.7116 3.6044 28.3185 20.1922 -30.8732 -5.6297 -0.0000 0.0000 -17.5429 14.3218 -22.5440 -5.5904 -7.1250 0.0000 -0.0000 -9.1480 7.0319 8.0654 -0.0000 -0.0000 0.0000 82.0680 -7.3987 52.4073 -21.4651 32.3672 -6.2971 0.0000 -0.0000 -8.3040 -18.7052 -26.9578 8.7263 7.1250 -0.0000 -0.0000 12.7846 -57.7542 -4.0352
15.2011 17.5566 -15.3038 7.2327 -57.4534 0.8565 0.0000 0.0000 0.0000 -15.4840 -9.8820 -14.3018 1.3609 7.3840 20.8581 0.4048 6.5288 -16.1651 0.1984 -2.8679 -7.9113 0.0000 0.0000 0.0000 13.0788 13.7449 -4.0863 -0.9553 -6.2238 17.4353 0.6441 -21.3140 -24.9727 -0.3650 3.8808 -10.7417 -6.9331 0.7035 1.4003 -1.2329 0.6293 -3.0554 2.5748 0.4935 -4.0234 3.8212 2.6346 -6.8207 -6.3872 3.5285 4.0819 -2.6140 1.6072 2.7361 0.0000 -0.0000 0.0000 -81.6831 3.4848 28.4097 20.2051 -30.8886 -5.6362 -0.0000 0.0000 -17.3763 14.5474 -22.5696 -5.6878 -7.1250 0.0000 -0.0000 -9.0080 6.9780 7.9483 0.0000 -0.0000 0.0000 82.1037 -7.4203 52.0931 -21.6308 32.5573 -6.3860 0.0000 -0.0000 -7.4529 -18.0677 -28.9290 8.9676 7.1250 -0.0000 -0.0000 14.6473 -59.5506 -5.2734
15.2015 17.5571 -15.3042 7.2018 -57.3979 0.9064 0.0000 0.0000 0.0000 -15.4855 -9.7225 -14.4558 1.3658 7.3968 20.8964 0.3931 6.4538 -15.9502 0.2602 -3.2817 -9.0641 0.0000 0.0000 0.0000 13.0506 13.3474 -4.2616 -0.9530 -6.2165 17.4140 0.6592 -21.0906 -24.4353 -0.3982 4.0513 -11.2211 -6.9579 0.7064 1.4330 -1.2099 0.6279 -3.0999 2.6117 0.4969 -4.0895 3.7387 2.6211 -6.7892 -6.2815 3.5163 4.1566 -2.5638 1.6030 2.7490 0.0000 -0.0000 0.0000 -81.7038 3.5289 28.4681 20.2615 -30.9561 -5.6652 -0.0000 0.0000 -17.2918 14.4452 -22.4000 -5.6064 -7.1250 0.0000 -0.0000 -9.0640 7.1614 7.9662 0.0000 -0.0000 0.0000 82.0320 -7.4692 52.1378 -21.7799 32.7274 -6.4665 0.0000 -0.0000 -7.3716 -18.1689 -29.3998 9.1520 7.1250 -0.0000 -0.0000 14.8473 -60.0332 -5.5190
15.2047 17.5584 -15.3091 6.8266 -57.2714 1.3110 0.0000 0.0000 0.0000 -15.2661 -9.5449 -14.7843 1.3758 7.4226 20.9736 0.3775 6.4073 -15.7065 0.2490 -3.2111 -8.8669 0.0000 0.0000 0.0000 13.2372 13.0907 -4.4074 -0.9442 -6.1888 17.3331 0.6389 -20.8707 -24.2371 -0.3550 3.8281 -10.5935 -6.7212 0.7012 1.4173 -1.1997 0.6307 -3.1166 2.4903 0.4918 -4.0935 3.5487 2.5554 -6.7841 -5.9451 3.4229 4.0737 -2.4181 1.5655 2.6989 -0.0000 0.0000 0.0000 -81.5496 3.4856 28.7951 20.3674 -31.0824 -5.7198 -0.0000 0.0000 -17.5324 14.2267 -22.2524 -5.4842 -7.1250 0.0000 -0.0000 -9.1945 7.3368 8.0521 -0.0000 0.0000 0.0000 82.0883 -7.4113 52.0762 -21.8298 32.7842 -6.4935 0.0000 -0.0000 -7.4437 -17.9735 -28.5124 8.8027 7.1250 -0.0000 -0.0000 14.4829 -59.1221 -5.0636
15.2093 17.5594 -15.3133 6.6215 -57.2061 1.5438 0.0000 0.0000 0.0000 -15.1172 -9.6767 -14.8522 1.3804 7.4346 21.0095 0.3790 6.4293 -15.7457 0.1999 -2.8792 -7.9427 0.0000 0.0000 0.0000 13.3977 13.5318 -4.2402 -0.9372 -6.1665 17.2681 0.6293 -21.1292 -24.7848 -0.2713 3.3507 -9.2567 -6.5764 0.7025 1.3341 -1.1929 0.6482 -3.0614 2.4171 0.4923 -3.9870 3.4568 2.5306 -6.8340 -5.8221 3.3850 3.9585 -2.3603 1.5495 2.6610 0.0000 0.0000 0.0000 -81.4918 3.2435 28.8747 20.3427 -31.0530 -5.7071 -0.0000 0.0000 -17.6701 14.3282 -22.2562 -5.5256 -7.1250 0.0000 -0.0000 -9.1309 7.3207 7.9979 0.0000 0.0000 0.0000 82.0975 -7.2649 52.0154 -21.8725 32.8326 -6.5166 0.0000 -0.0000 -7.3195 -17.6585 -27.8797 8.4670 7.1250 -0.0000 -0.0000 14.4291 -58.4321 -4.8044
15.2127 17.5605 -15.3149 6.4213 -57.1587 1.6783 0.0000 0.0000 0.0000 -14.9810 -9.8880 -14.7027 1.3755 7.4219 20.9714 0.3676 6.5387 -15.6937 0.2844 -3.4299 -9.4780 0.0000 0.0000 0.0000 13.5682 13.8230 -4.0610 -0.9353 -6.1604 17.2507 0.6643 -21.4459 -25.0195 -0.2618 3.2917 -9.0920 -6.4634 0.7220 1.4828 -1.1821 0.6641 -3.1105 2.3623 0.5018 -4.1221 3.3982 2.5198 -6.8273 -5.6776 3.3723 4.0573 -2.3019 1.5463 2.6864 0.0000 -0.0000 0.0000 -81.4751 3.2468 28.8946 20.3221 -31.0284 -5.6964 -0.0000 0.0000 -17.5304 14.5842 -22.2667 -5.6306 -7.1250 0.0000 -0.0000 -8.9707 7.2785 7.8613 0.0000 -0.0000 0.0000 82.0565 -7.4552 52.1107 -22.0549 33.0390 -6.6157 0.0000 -0.0000 -7.4947 -18.0141 -27.3718 8.5034 7.1250 -0.0000 -0.0000 13.7514 -58.0121 -4.4336
15.2155 17.5620 -15.3151 6.7830 -57.1340 1.2311 0.0000 0.0000 0.0000 -15.2319 -9.9128 -14.4992 1.3663 7.3981 20.9003 0.3667 6.4684 -15.6189 0.3627 -3.8689 -10.7080 0.0000 0.0000 0.0000 13.3604 13.6811 -3.9402 -0.9334 -6.1542 17.2325 0.6494 -21.4025 -25.0798 -0.2939 3.4858 -9.6344 -6.6597 0.7335 1.7618 -1.2404 0.6438 -3.1510 2.4088 0.5031 -4.3249 3.4441 2.5341 -6.7938 -5.6898 3.3947 4.1963 -2.3144 1.5572 2.7299 0.0000 0.0000 0.0000 -81.5716 3.4155 28.6087 20.3739 -31.0902 -5.7232 -0.0000 0.0000 -17.0742 14.7503 -22.4526 -5.7419 -7.1250 0.0000 -0.0000 -8.8753 7.0704 7.8120 0.0000 0.0000 0.0000 81.9904 -7.7138 52.2655 -22.3010 33.3156 -6.7504 0.0000 -0.0000 -7.6883 -18.3656 -27.6402 8.7556 7.1250 -0.0000 -0.0000 13.5340 -58.3541 -4.4736
15.2179 17.5628 -15.3167 7.2067 -57.1014 0.7655 0.0000 0.0000 0.0000 -15.5206 -9.9097 -14.3463 1.3552 7.3692 20.8138 0.3681 6.5040 -15.6691 0.3929 -4.0248 -11.1464 0.0000 0.0000 0.0000 13.1224 13.7140 -3.7841 -0.9332 -6.1535 17.2304 0.5960 -21.3403 -25.4557 -0.2699 3.3418 -9.2318 -6.9260 0.7198 1.9127 -1.2646 0.6012 -3.1365 2.5332 0.4918 -4.3969 3.5277 2.5783 -6.7947 -5.8778 3.4610 4.2901 -2.3909 1.5843 2.7734 0.0000 -0.0000 0.0000 -81.6228 3.5245 28.5838 20.4876 -31.2253 -5.7820 -0.0000 0.0000 -17.1294 15.0701 -22.4569 -5.8725 -7.1250 0.0000 -0.0000 -8.6751 7.0257 7.6392 0.0000 -0.0000 0.0000 81.8732 -7.8066 52.4261 -22.5282 33.5688 -6.8756 0.0000 -0.0000 -7.8112 -18.5339 -28.7148 9.1502 7.1250 -0.0000 -0.0000 14.0065 -59.4491 -5.0029
15.2206 17.5620 -15.3212 6.9611 -57.0290 0.9989 0.0000 0.0000 0.0000 -15.3678 -9.9119 -14.3731 1.3433 7.3380 20.7206 0.3131 6.9064 -15.3034 0.3523 -3.8134 -10.5523 0.0000 0.0000 0.0000 13.2962 13.8107 -3.7884 -0.9361 -6.1629 17.2579 0.6098 -21.4865 -25.5842 -0.2803 3.4053 -9.4094 -6.8333 0.7195 1.9431 -1.2178 0.6043 -3.1427 2.5296 0.4923 -4.4196 3.5459 2.5726 -6.8388 -5.9167 3.4546 4.3304 -2.4079 1.5792 2.7968 0.0000 0.0000 0.0000 -81.5147 3.5478 28.9536 20.6267 -31.3900 -5.8543 -0.0000 0.0000 -17.6754 15.0368 -22.0079 -5.7485 -7.1250 0.0000 -0.0000 -8.6739 7.4832 7.5598 0.0000 0.0000 0.0000 81.8443 -7.8834 52.2997 -22.7050 33.7647 -6.9737 0.0000 -0.0000 -7.7776 -18.1969 -28.9891 9.0519 7.1250 -0.0000 -0.0000 14.5464 -59.6392 -5.2670
15.2211 17.5624 -15.3228 6.9245 -56.9785 1.1025 0.0000 0.0000 0.0000 -15.3334 -9.9388 -14.4668 1.3417 7.3338 20.7081 0.3339 6.8309 -15.5142 0.4358 -4.2361 -11.7419 0.0000 0.0000 0.0000 13.3051 13.7087 -3.8862 -0.9307 -6.1455 17.2072 0.6417 -21.5510 -25.4098 -0.3213 3.6435 -10.0759 -6.8424 0.7187 1.8696 -1.1992 0.6096 -3.1497 2.5543 0.4948 -4.3861 3.4038 2.5432 -6.8927 -5.8527 3.4244 4.3564 -2.3615 1.5625 2.8081 0.0000 0.0000 0.0000 -81.6446 3.5622 28.5716 20.6913 -31.4663 -5.8880 -0.0000 0.0000 -17.6587 14.3686 -21.8166 -5.4384 -7.1250 0.0000 -0.0000 -9.0863 7.7582 7.8789 0.0000 0.0000 0.0000 81.8277 -7.9324 51.9245 -22.7618 33.8273 -7.0052 0.0000 -0.0000 -7.1078 -17.3782 -29.1419 8.6655 7.1250 -0.0000 -0.0000 15.5301 -59.5978 -5.6181
15.2233 17.5643 -15.3215 7.0048 -56.9403 1.0885 0.0000 0.0000 0.0000 -15.3681 -10.1535 -14.4811 1.3462 7.3457 20.7436 0.3499 6.7179 -15.6232 0.3333 -3.7103 -10.2631 0.0000 0.0000 0.0000 13.2145 13.5583 -3.9648 -0.9226 -6.1194 17.1314 0.6494 -21.5007 -25.2523 -0.3216 3.6451 -10.0802 -6.8925 0.7004 1.7775 -1.1653 0.5933 -3.1364 2.6195 0.4868 -4.3194 3.1540 2.5300 -6.9260 -5.7593 3.4233 4.3567 -2.2837 1.5597 2.8047 -0.0000 -0.0000 0.0000 -81.9584 3.5602 27.9048 20.7059 -31.4835 -5.8956 -0.0000 0.0000 -17.2295 13.9242 -21.7499 -5.2490 -7.1250 0.0000 -0.0000 -9.3639 7.8784 8.1039 -0.0000 -0.0000 0.0000 81.6824 -7.8687 52.0734 -22.7714 33.8379 -7.0106 0.0000 -0.0000 -7.1290 -17.4679 -30.4140 9.0515 7.1250 -0.0000 -0.0000 16.3197 -60.8470 -6.4004
15.2274 17.5627 -15.3215 6.8955 -56.9174 1.1815 0.0000 0.0000 0.0000 -15.2990 -10.3374 -14.4266 1.3454 7.3435 20.7370 0.3580 6.7934 -15.7991 0.2801 -3.4042 -9.4061 0.0000 0.0000 0.0000 13.2668 13.6537 -3.9235 -0.9217 -6.1166 17.1231 0.6065 -21.3963 -25.4583 -0.2666 3.3214 -9.1748 -6.8257 0.6865 1.7782 -1.1219 0.5808 -3.1152 2.6282 0.4784 -4.2954 3.1756 2.5708 -6.9001 -5.8663 3.4809 4.3172 -2.3209 1.5857 2.7933 0.0000 -0.0000 0.0000 -81.9814 3.5211 27.9673 20.7508 -31.5363 -5.9190 -0.0000 0.0000 -17.1940 13.8808 -21.4141 -5.1556 -7.1250 0.0000 -0.0000 -9.3785 8.2209 8.0526 0.0000 -0.0000 0.0000 81.5324 -7.8373 52.5783 -22.8024 33.8721 -7.0279 0.0000 -0.0000 -8.0907 -18.2551 -30.4532 9.4909 7.1250 -0.0000 -0.0000 15.4851 -61.0763 -6.1482
15.2292 17.5564 -15.3264 6.8182 -56.8839 1.2541 0.0000 0.0000 0.0000 -15.2172 -10.5045 -14.4131 1.3492 7.3535 20.7670 0.3706 6.6637 -15.8462 0.3468 -3.7839 -10.4694 0.0000 0.0000 0.0000 13.3279 13.8001 -3.8478 -0.9158 -6.0974 17.0674 0.5559 -21.3138 -25.7656 -0.2003 2.8820 -7.9503 -6.8073 0.6796 1.8296 -1.1319 0.5674 -3.1190 2.6078 0.4719 -4.3269 3.3913 2.6211 -6.8797 -6.0456 3.5391 4.3091 -2.4187 1.6129 2.8015 0.0000 0.0000 0.0000 -81.7759 3.5090 28.2727 20.8121 -31.6083 -5.9511 -0.0000 0.0000 -17.3484 14.0276 -21.1698 -5.1556 -7.1250 0.0000 -0.0000 -9.2765 8.4495 7.9200 0.0000 0.0000 0.0000 81.5367 -7.9216 52.6195 -22.8205 33.8920 -7.0380 0.0000 -0.0000 -8.5082 -18.5338 -28.6162 9.1218 7.1250 -0.0000 -0.0000 13.9446 -59.3523 -4.9478
